<?xml version="1.0" encoding="UTF-8"?>
<svg width="500" height="500" viewBox="0 0 500 500" xmlns="http://www.w3.org/2000/svg">
  <style>
    .logo { fill: #2A4E63; }
  </style>
  <g class="logo" transform="translate(50, 30)">
    <!-- Top horn parts -->
    <path d="M250 10c-20 0-35 15-45 35 10-5 30-10 45-10 15 0 35 5 45 10-10-20-25-35-45-35z"/>
    <path d="M140 10c-15 0-30 10-35 25 10 0 25-5 40-5 15 0 25 5 35 10-5-20-25-30-40-30z"/>
    <path d="M360 10c-15 0-35 10-40 30 10-5 20-10 35-10 15 0 30 5 40 5-5-15-20-25-35-25z"/>
    
    <!-- Face and eyes -->
    <path d="M250 60c-40 0-70 20-85 45-25 40-30 90-30 120 0 20 5 35 15 45 10-25 25-45 50-45 15 0 30 10 40 25 5-10 5-25 5-35-30-25-30-65 0-90 5 10 5 25 10 30 5-5 5-20 10-30 30 25 30 65 0 90 0 10 0 25 5 35 10-15 25-25 40-25 25 0 40 20 50 45 10-10 15-25 15-45 0-30-5-80-30-120-15-25-45-45-85-45z"/>
    <ellipse cx="205" cy="110" rx="15" ry="20"/>
    <ellipse cx="295" cy="110" rx="15" ry="20"/>
    
    <!-- Wings and chest pattern -->
    <path d="M130 125c-30 10-50 30-60 60-10 30-10 65 0 95 5-15 15-30 30-40-5-15-5-30 0-45 10-30 30-50 55-65-5-5-15-5-25-5z"/>
    <path d="M370 125c-10 0-20 0-25 5 25 15 45 35 55 65 5 15 5 30 0 45 15 10 25 25 30 40 10-30 10-65 0-95-10-30-30-50-60-60z"/>
    
    <!-- Chest V pattern -->
    <path d="M250 140c-25 0-45 10-60 25-15 15-25 35-30 55-5 20-5 45 0 65 5-10 15-15 25-15 10 0 15 5 20 10 5-20 20-35 45-35s40 15 45 35c5-5 10-10 20-10 10 0 20 5 25 15 5-20 5-45 0-65-5-20-15-40-30-55-15-15-35-25-60-25z"/>
    <path d="M250 170c-15 0-25 5-35 15-10 10-15 20-20 35-5 15-5 30 0 45 5-5 10-10 15-10 5 0 10 0 15 5 5-15 15-25 25-25s20 10 25 25c5-5 10-5 15-5 5 0 10 5 15 10 5-15 5-30 0-45-5-15-10-25-20-35-10-10-20-15-35-15z"/>
    <path d="M250 200c-10 0-15 5-20 10-5 5-10 15-10 25 0 10 0 15 5 25 5-5 10-5 10-5 0 0 5 0 10-5 0-5 0-10 5-10s5 5 5 10c5 5 10 5 10 5 0 0 5 0 10 5 5-10 5-15 5-25 0-10-5-20-10-25-5-5-10-10-20-10z"/>
    
    <!-- Feet -->
    <rect x="175" y="375" width="10" height="25" rx="5"/>
    <rect x="195" y="375" width="10" height="25" rx="5"/>
    <rect x="295" y="375" width="10" height="25" rx="5"/>
    <rect x="315" y="375" width="10" height="25" rx="5"/>
  </g>
</svg>
